<svg width="233" height="241" viewBox="0 0 233 241" fill="none" xmlns="http://www.w3.org/2000/svg">
<path d="M9 0C13.9706 0 18 4.02944 18 9C18 9.30992 17.9837 9.61612 17.9531 9.91797C25.4841 14.1951 32.9831 19.9781 39.7939 25.6162C44.5315 29.5381 49.087 33.5202 53.0869 36.9189C57.1512 40.3724 60.6329 43.2156 63.4414 45.0879C65.7571 46.6317 69.9815 47.8601 76.1348 48.9092C82.1594 49.9363 89.3968 50.703 97.4102 51.6494C113.241 53.5192 131.857 56.0563 147.392 62.7881L147.984 63.0498C160.504 68.6596 176.941 81.756 192.221 95.5527C207.859 109.673 222.689 124.904 231.584 134.639L232.947 136.131L199.836 240.558L193.164 238.442L225.051 137.876C216.169 128.253 202.199 113.994 187.529 100.748C172.454 87.1361 157.015 74.9413 145.691 69.6973L144.608 69.2119C130.143 62.9438 112.509 60.4808 96.5898 58.6006C88.7285 57.6721 81.2154 56.8762 74.959 55.8096C68.8312 54.7649 63.2428 53.3683 59.5586 50.9121C56.3672 48.7845 52.5987 45.69 48.5537 42.2529C44.4444 38.7612 40.0307 34.8993 35.3311 31.0088C28.5316 25.3801 21.4443 19.9612 14.5859 16.0537C13.0509 17.2709 11.1112 18 9 18C4.02944 18 0 13.9706 0 9C0 4.02944 4.02944 0 9 0Z" fill="#00F0BE"/>
</svg>
